<svg id="Capa_1" data-name="Capa 1" xmlns="http://www.w3.org/2000/svg" viewBox="0 0 512 512"><defs><style>.cls-1{fill:#fff;}</style></defs><path class="cls-1" d="M437,75A256,256,0,0,0,75,437,256,256,0,0,0,437,75ZM256,481.52C131.65,481.52,30.48,380.35,30.48,256S131.65,30.48,256,30.48,481.52,131.65,481.52,256,380.35,481.52,256,481.52Z"/><path class="cls-1" d="M391.11,267.17H120.89a15.24,15.24,0,0,0-15.24,15.24c0,82.91,67.45,150.35,150.35,150.35s150.35-67.44,150.35-150.35A15.24,15.24,0,0,0,391.11,267.17ZM256,402.29A120.06,120.06,0,0,1,137.09,297.65H374.91A120.06,120.06,0,0,1,256,402.29Z"/><circle class="cls-1" cx="142.15" cy="180" r="25.75"/><circle class="cls-1" cx="369.85" cy="180" r="25.75"/></svg>